<?xml version="1.0"?>
<svg xmlns="http://www.w3.org/2000/svg" xmlns:xlink="http://www.w3.org/1999/xlink" viewBox="0 0 456.400000 140.000000" width="228.200000mm" height="70.000000mm" version="1.1">
<defs>
   <filter id="filter" filterRes="18" x="0" y="0">
     <feGaussianBlur in="SourceGraphic" stdDeviation="1.55" result="blur"/>
     <feOffset in="blur" dx="3" dy="3"/>
   </filter>
</defs>
<rect x="1.000000" y="1.000000" width="455.400000" height="139.000000" rx="0.1" ry="0.1" style="stroke:none;fill:#aaaaaa;;filter:url(#filter);"/>
<rect x="0.000000" y="0.000000" width="455.400000" height="139.000000" rx="0" ry="0" style="stroke:none;fill:#ffffff;"/>
<text x="10.000000" y="7.000000" font-family="Arial" font-size="7"></text>
<rect x="43.000000" y="83.000000" width="24.000000" height="24.000000" rx="0.1" ry="0.1" style="stroke:none;fill:#aaaaaa;;filter:url(#filter);"/>
<rect x="42.000000" y="82.000000" width="24.000000" height="24.000000" rx="0" ry="0" style="stroke:none;fill:#f44800;"/>
<text x="54.000000" y="96.000000" font-family="Arial" font-size="7" text-anchor="middle" fill="#FFFFFF">1</text>
<circle cx="44.000000" cy="84.000000" r="1"/>
<rect x="83.000000" y="79.000000" width="25.800000" height="24.000000" rx="0.1" ry="0.1" style="stroke:none;fill:#aaaaaa;;filter:url(#filter);"/>
<rect x="82.000000" y="78.000000" width="25.800000" height="24.000000" rx="0" ry="0" style="stroke:none;fill:#4B71A1;"/>
<text x="94.900000" y="92.000000" font-family="Arial" font-size="7" text-anchor="middle" fill="#FFFFFF">fmod</text>
<circle cx="84.000000" cy="80.000000" r="1"/>
<line x1="79.000000" y1="85.000000" x2="82.000000" y2="86.000000"  transform="rotate(0.000000,82.000000,86.000000)" style="stroke: black; stroke-width:0.25;"/>
<line x1="79.000000" y1="87.000000" x2="82.000000" y2="86.000000"  transform="rotate(0.000000,82.000000,86.000000)" style="stroke: black; stroke-width:0.25;"/>
<line x1="79.000000" y1="93.000000" x2="82.000000" y2="94.000000"  transform="rotate(0.000000,82.000000,94.000000)" style="stroke: black; stroke-width:0.25;"/>
<line x1="79.000000" y1="95.000000" x2="82.000000" y2="94.000000"  transform="rotate(0.000000,82.000000,94.000000)" style="stroke: black; stroke-width:0.25;"/>
<rect x="83.900000" y="35.000000" width="24.000000" height="24.000000" rx="0.1" ry="0.1" style="stroke:none;fill:#aaaaaa;;filter:url(#filter);"/>
<rect x="82.900000" y="34.000000" width="24.000000" height="24.000000" rx="0" ry="0" style="stroke:none;fill:#f44800;"/>
<text x="94.900000" y="48.000000" font-family="Arial" font-size="7" text-anchor="middle" fill="#FFFFFF">1</text>
<circle cx="104.900000" cy="56.000000" r="1"/>
<rect x="43.900000" y="39.000000" width="24.000000" height="24.000000" rx="0.1" ry="0.1" style="stroke:none;fill:#aaaaaa;;filter:url(#filter);"/>
<rect x="42.900000" y="38.000000" width="24.000000" height="24.000000" rx="0" ry="0" style="stroke:none;fill:#4B71A1;"/>
<text x="54.900000" y="52.000000" font-family="Arial" font-size="7" text-anchor="middle" fill="#FFFFFF">+</text>
<circle cx="64.900000" cy="60.000000" r="1"/>
<line x1="69.900000" y1="53.000000" x2="66.900000" y2="54.000000"  transform="rotate(0.000000,66.900000,54.000000)" style="stroke: black; stroke-width:0.25;"/>
<line x1="69.900000" y1="55.000000" x2="66.900000" y2="54.000000"  transform="rotate(0.000000,66.900000,54.000000)" style="stroke: black; stroke-width:0.25;"/>
<line x1="69.900000" y1="45.000000" x2="66.900000" y2="46.000000"  transform="rotate(0.000000,66.900000,46.000000)" style="stroke: black; stroke-width:0.25;"/>
<line x1="69.900000" y1="47.000000" x2="66.900000" y2="46.000000"  transform="rotate(0.000000,66.900000,46.000000)" style="stroke: black; stroke-width:0.25;"/>
<line x1="109.800000" y1="90.000000" x2="109.800000" y2="86.000000"  style="stroke:black; stroke-linecap:round; stroke-width:0.25;"/>
<line x1="109.800000" y1="86.000000" x2="113.800000" y2="86.000000"  style="stroke:black; stroke-linecap:round; stroke-width:0.25;"/>
<line x1="113.800000" y1="86.000000" x2="113.800000" y2="90.000000"  style="stroke:black; stroke-linecap:round; stroke-width:0.25;"/>
<line x1="25.000000" y1="25.000000" x2="25.000000" y2="115.000000"  style="stroke: black; stroke-linecap:round; stroke-width:0.25; stroke-dasharray:3,3;"/>
<line x1="25.000000" y1="115.000000" x2="124.800000" y2="115.000000"  style="stroke: black; stroke-linecap:round; stroke-width:0.25; stroke-dasharray:3,3;"/>
<line x1="124.800000" y1="115.000000" x2="124.800000" y2="25.000000"  style="stroke: black; stroke-linecap:round; stroke-width:0.25; stroke-dasharray:3,3;"/>
<line x1="25.000000" y1="25.000000" x2="30.000000" y2="25.000000"  style="stroke: black; stroke-linecap:round; stroke-width:0.25; stroke-dasharray:3,3;"/>
<line x1="46.125000" y1="25.000000" x2="124.800000" y2="25.000000"  style="stroke: black; stroke-linecap:round; stroke-width:0.25; stroke-dasharray:3,3;"/>
<text x="30.000000" y="27.000000" font-family="Arial" font-size="7">sig</text>
<rect x="186.800000" y="67.000000" width="180.600000" height="24.000000" rx="0.1" ry="0.1" style="stroke:none;fill:#aaaaaa;;filter:url(#filter);"/>
<rect x="185.800000" y="66.000000" width="180.600000" height="24.000000" rx="0" ry="0" style="stroke:none;fill:#477881;"/>
<text x="276.100000" y="80.000000" font-family="Arial" font-size="7" text-anchor="middle" fill="#FFFFFF">hslider(Delay, 0.0f, 0.0f, 10000.0f, 1.0f)</text>
<circle cx="187.800000" cy="68.000000" r="1"/>
<line x1="176.800000" y1="57.000000" x2="176.800000" y2="99.000000"  style="stroke: black; stroke-linecap:round; stroke-width:0.25; stroke-dasharray:3,3;"/>
<line x1="176.800000" y1="99.000000" x2="375.400000" y2="99.000000"  style="stroke: black; stroke-linecap:round; stroke-width:0.25; stroke-dasharray:3,3;"/>
<line x1="375.400000" y1="99.000000" x2="375.400000" y2="57.000000"  style="stroke: black; stroke-linecap:round; stroke-width:0.25; stroke-dasharray:3,3;"/>
<line x1="176.800000" y1="57.000000" x2="181.800000" y2="57.000000"  style="stroke: black; stroke-linecap:round; stroke-width:0.25; stroke-dasharray:3,3;"/>
<line x1="204.375000" y1="57.000000" x2="375.400000" y2="57.000000"  style="stroke: black; stroke-linecap:round; stroke-width:0.25; stroke-dasharray:3,3;"/>
<text x="181.800000" y="59.000000" font-family="Arial" font-size="7">delay</text>
<rect x="393.400000" y="63.000000" width="24.000000" height="24.000000" rx="0.1" ry="0.1" style="stroke:none;fill:#aaaaaa;;filter:url(#filter);"/>
<rect x="392.400000" y="62.000000" width="24.000000" height="24.000000" rx="0" ry="0" style="stroke:none;fill:#4B71A1;"/>
<text x="404.400000" y="76.000000" font-family="Arial" font-size="7" text-anchor="middle" fill="#FFFFFF">@</text>
<circle cx="394.400000" cy="64.000000" r="1"/>
<line x1="389.400000" y1="69.000000" x2="392.400000" y2="70.000000"  transform="rotate(0.000000,392.400000,70.000000)" style="stroke: black; stroke-width:0.25;"/>
<line x1="389.400000" y1="71.000000" x2="392.400000" y2="70.000000"  transform="rotate(0.000000,392.400000,70.000000)" style="stroke: black; stroke-width:0.25;"/>
<line x1="389.400000" y1="77.000000" x2="392.400000" y2="78.000000"  transform="rotate(0.000000,392.400000,78.000000)" style="stroke: black; stroke-width:0.25;"/>
<line x1="389.400000" y1="79.000000" x2="392.400000" y2="78.000000"  transform="rotate(0.000000,392.400000,78.000000)" style="stroke: black; stroke-width:0.25;"/>
<line x1="15.000000" y1="15.000000" x2="15.000000" y2="125.000000"  style="stroke: black; stroke-linecap:round; stroke-width:0.25; stroke-dasharray:3,3;"/>
<line x1="15.000000" y1="125.000000" x2="441.400000" y2="125.000000"  style="stroke: black; stroke-linecap:round; stroke-width:0.25; stroke-dasharray:3,3;"/>
<line x1="441.400000" y1="125.000000" x2="441.400000" y2="15.000000"  style="stroke: black; stroke-linecap:round; stroke-width:0.25; stroke-dasharray:3,3;"/>
<line x1="15.000000" y1="15.000000" x2="20.000000" y2="15.000000"  style="stroke: black; stroke-linecap:round; stroke-width:0.25; stroke-dasharray:3,3;"/>
<line x1="49.025000" y1="15.000000" x2="441.400000" y2="15.000000"  style="stroke: black; stroke-linecap:round; stroke-width:0.25; stroke-dasharray:3,3;"/>
<text x="20.000000" y="17.000000" font-family="Arial" font-size="7">process</text>
<line x1="443.400000" y1="65.000000" x2="446.400000" y2="66.000000"  transform="rotate(0.000000,446.400000,66.000000)" style="stroke: black; stroke-width:0.25;"/>
<line x1="443.400000" y1="67.000000" x2="446.400000" y2="66.000000"  transform="rotate(0.000000,446.400000,66.000000)" style="stroke: black; stroke-width:0.25;"/>
<line x1="443.400000" y1="73.000000" x2="446.400000" y2="74.000000"  transform="rotate(0.000000,446.400000,74.000000)" style="stroke: black; stroke-width:0.25;"/>
<line x1="443.400000" y1="75.000000" x2="446.400000" y2="74.000000"  transform="rotate(0.000000,446.400000,74.000000)" style="stroke: black; stroke-width:0.25;"/>
<line x1="38.000000" y1="50.000000" x2="38.000000" y2="50.000000"  style="stroke:black; stroke-linecap:round; stroke-width:0.25;"/>
<line x1="38.000000" y1="50.000000" x2="38.000000" y2="74.000000"  style="stroke:black; stroke-linecap:round; stroke-width:0.25;"/>
<line x1="38.000000" y1="74.000000" x2="38.000000" y2="74.000000"  style="stroke:black; stroke-linecap:round; stroke-width:0.25;"/>
<line x1="38.000000" y1="74.000000" x2="54.000000" y2="74.000000"  style="stroke:black; stroke-linecap:round; stroke-width:0.25;"/>
<line x1="38.900000" y1="50.000000" x2="38.000000" y2="50.000000"  style="stroke:black; stroke-linecap:round; stroke-width:0.25;"/>
<line x1="42.900000" y1="50.000000" x2="38.900000" y2="50.000000"  style="stroke:black; stroke-linecap:round; stroke-width:0.25;"/>
<line x1="54.000000" y1="74.000000" x2="70.000000" y2="74.000000"  style="stroke:black; stroke-linecap:round; stroke-width:0.25;"/>
<line x1="66.000000" y1="94.000000" x2="70.000000" y2="94.000000"  style="stroke:black; stroke-linecap:round; stroke-width:0.25;"/>
<line x1="70.000000" y1="74.000000" x2="78.000000" y2="74.000000"  style="stroke:black; stroke-linecap:round; stroke-width:0.25;"/>
<line x1="70.000000" y1="94.000000" x2="78.000000" y2="94.000000"  style="stroke:black; stroke-linecap:round; stroke-width:0.25;"/>
<line x1="70.900000" y1="46.000000" x2="66.900000" y2="46.000000"  style="stroke:black; stroke-linecap:round; stroke-width:0.25;"/>
<line x1="70.900000" y1="54.000000" x2="66.900000" y2="54.000000"  style="stroke:black; stroke-linecap:round; stroke-width:0.25;"/>
<line x1="70.900000" y1="54.000000" x2="70.900000" y2="54.000000"  style="stroke:black; stroke-linecap:round; stroke-width:0.25;"/>
<line x1="70.900000" y1="66.000000" x2="70.900000" y2="54.000000"  style="stroke:black; stroke-linecap:round; stroke-width:0.25;"/>
<line x1="78.000000" y1="74.000000" x2="78.000000" y2="86.000000"  style="stroke:black; stroke-linecap:round; stroke-width:0.25;"/>
<line x1="78.000000" y1="86.000000" x2="78.000000" y2="86.000000"  style="stroke:black; stroke-linecap:round; stroke-width:0.25;"/>
<line x1="78.000000" y1="86.000000" x2="82.000000" y2="86.000000"  style="stroke:black; stroke-linecap:round; stroke-width:0.25;"/>
<line x1="78.000000" y1="94.000000" x2="82.000000" y2="94.000000"  style="stroke:black; stroke-linecap:round; stroke-width:0.25;"/>
<line x1="78.900000" y1="46.000000" x2="70.900000" y2="46.000000"  style="stroke:black; stroke-linecap:round; stroke-width:0.25;"/>
<line x1="78.900000" y1="66.000000" x2="70.900000" y2="66.000000"  style="stroke:black; stroke-linecap:round; stroke-width:0.25;"/>
<line x1="82.900000" y1="46.000000" x2="78.900000" y2="46.000000"  style="stroke:black; stroke-linecap:round; stroke-width:0.25;"/>
<line x1="94.900000" y1="66.000000" x2="78.900000" y2="66.000000"  style="stroke:black; stroke-linecap:round; stroke-width:0.25;"/>
<line x1="107.800000" y1="90.000000" x2="111.800000" y2="90.000000"  style="stroke:black; stroke-linecap:round; stroke-width:0.25;"/>
<line x1="110.900000" y1="66.000000" x2="94.900000" y2="66.000000"  style="stroke:black; stroke-linecap:round; stroke-width:0.25;"/>
<line x1="111.800000" y1="66.000000" x2="111.800000" y2="66.000000"  style="stroke:black; stroke-linecap:round; stroke-width:0.25;"/>
<line x1="111.800000" y1="86.000000" x2="111.800000" y2="66.000000"  style="stroke:black; stroke-linecap:round; stroke-width:0.25;"/>
<line x1="111.800000" y1="90.000000" x2="113.800000" y2="90.000000"  style="stroke:black; stroke-linecap:round; stroke-width:0.25;"/>
<line x1="111.800000" y1="66.000000" x2="110.900000" y2="66.000000"  style="stroke:black; stroke-linecap:round; stroke-width:0.25;"/>
<line x1="113.800000" y1="90.000000" x2="119.800000" y2="90.000000"  style="stroke:black; stroke-linecap:round; stroke-width:0.25;"/>
<line x1="119.800000" y1="90.000000" x2="129.800000" y2="90.000000"  style="stroke:black; stroke-linecap:round; stroke-width:0.25;"/>
<line x1="129.800000" y1="90.000000" x2="171.800000" y2="40.000000"  style="stroke:black; stroke-linecap:round; stroke-width:0.25;"/>
<line x1="129.800000" y1="90.000000" x2="171.800000" y2="48.000000"  style="stroke:black; stroke-linecap:round; stroke-width:0.25;"/>
<line x1="171.800000" y1="40.000000" x2="296.100000" y2="40.000000"  style="stroke:black; stroke-linecap:round; stroke-width:0.25;"/>
<line x1="171.800000" y1="48.000000" x2="276.100000" y2="48.000000"  style="stroke:black; stroke-linecap:round; stroke-width:0.25;"/>
<line x1="276.100000" y1="48.000000" x2="380.400000" y2="48.000000"  style="stroke:black; stroke-linecap:round; stroke-width:0.25;"/>
<line x1="296.100000" y1="40.000000" x2="420.400000" y2="40.000000"  style="stroke:black; stroke-linecap:round; stroke-width:0.25;"/>
<line x1="366.400000" y1="78.000000" x2="370.400000" y2="78.000000"  style="stroke:black; stroke-linecap:round; stroke-width:0.25;"/>
<line x1="370.400000" y1="78.000000" x2="380.400000" y2="78.000000"  style="stroke:black; stroke-linecap:round; stroke-width:0.25;"/>
<line x1="380.400000" y1="78.000000" x2="388.400000" y2="78.000000"  style="stroke:black; stroke-linecap:round; stroke-width:0.25;"/>
<line x1="380.400000" y1="48.000000" x2="388.400000" y2="48.000000"  style="stroke:black; stroke-linecap:round; stroke-width:0.25;"/>
<line x1="388.400000" y1="70.000000" x2="392.400000" y2="70.000000"  style="stroke:black; stroke-linecap:round; stroke-width:0.25;"/>
<line x1="388.400000" y1="78.000000" x2="392.400000" y2="78.000000"  style="stroke:black; stroke-linecap:round; stroke-width:0.25;"/>
<line x1="388.400000" y1="48.000000" x2="388.400000" y2="70.000000"  style="stroke:black; stroke-linecap:round; stroke-width:0.25;"/>
<line x1="388.400000" y1="70.000000" x2="388.400000" y2="70.000000"  style="stroke:black; stroke-linecap:round; stroke-width:0.25;"/>
<line x1="416.400000" y1="74.000000" x2="420.400000" y2="74.000000"  style="stroke:black; stroke-linecap:round; stroke-width:0.25;"/>
<line x1="420.400000" y1="74.000000" x2="428.400000" y2="74.000000"  style="stroke:black; stroke-linecap:round; stroke-width:0.25;"/>
<line x1="420.400000" y1="40.000000" x2="428.400000" y2="40.000000"  style="stroke:black; stroke-linecap:round; stroke-width:0.25;"/>
<line x1="428.400000" y1="66.000000" x2="432.400000" y2="66.000000"  style="stroke:black; stroke-linecap:round; stroke-width:0.25;"/>
<line x1="428.400000" y1="74.000000" x2="432.400000" y2="74.000000"  style="stroke:black; stroke-linecap:round; stroke-width:0.25;"/>
<line x1="428.400000" y1="40.000000" x2="428.400000" y2="66.000000"  style="stroke:black; stroke-linecap:round; stroke-width:0.25;"/>
<line x1="428.400000" y1="66.000000" x2="428.400000" y2="66.000000"  style="stroke:black; stroke-linecap:round; stroke-width:0.25;"/>
<line x1="432.400000" y1="66.000000" x2="436.400000" y2="66.000000"  style="stroke:black; stroke-linecap:round; stroke-width:0.25;"/>
<line x1="432.400000" y1="74.000000" x2="436.400000" y2="74.000000"  style="stroke:black; stroke-linecap:round; stroke-width:0.25;"/>
<line x1="436.400000" y1="66.000000" x2="446.400000" y2="66.000000"  style="stroke:black; stroke-linecap:round; stroke-width:0.25;"/>
<line x1="436.400000" y1="74.000000" x2="446.400000" y2="74.000000"  style="stroke:black; stroke-linecap:round; stroke-width:0.25;"/>
</svg>
