<?xml version="1.0"?>
<svg xmlns="http://www.w3.org/2000/svg" xmlns:xlink="http://www.w3.org/1999/xlink" viewBox="0 0 478.400000 184.000000" width="239.200000mm" height="92.000000mm" version="1.1">
<defs>
   <filter id="filter" filterRes="18" x="0" y="0">
     <feGaussianBlur in="SourceGraphic" stdDeviation="1.55" result="blur"/>
     <feOffset in="blur" dx="3" dy="3"/>
   </filter>
</defs>
<rect x="1.000000" y="1.000000" width="477.400000" height="183.000000" rx="0.1" ry="0.1" style="stroke:none;fill:#aaaaaa;;filter:url(#filter);"/>
<rect x="0.000000" y="0.000000" width="477.400000" height="183.000000" rx="0" ry="0" style="stroke:none;fill:#ffffff;"/>
<text x="10.000000" y="7.000000" font-family="Arial" font-size="7"></text>
<rect x="43.000000" y="105.000000" width="24.000000" height="24.000000" rx="0.1" ry="0.1" style="stroke:none;fill:#aaaaaa;;filter:url(#filter);"/>
<rect x="42.000000" y="104.000000" width="24.000000" height="24.000000" rx="0" ry="0" style="stroke:none;fill:#f44800;"/>
<text x="54.000000" y="118.000000" font-family="Arial" font-size="7" text-anchor="middle" fill="#FFFFFF">1</text>
<circle cx="44.000000" cy="106.000000" r="1"/>
<rect x="83.000000" y="101.000000" width="25.800000" height="24.000000" rx="0.1" ry="0.1" style="stroke:none;fill:#aaaaaa;;filter:url(#filter);"/>
<rect x="82.000000" y="100.000000" width="25.800000" height="24.000000" rx="0" ry="0" style="stroke:none;fill:#4B71A1;"/>
<text x="94.900000" y="114.000000" font-family="Arial" font-size="7" text-anchor="middle" fill="#FFFFFF">fmod</text>
<circle cx="84.000000" cy="102.000000" r="1"/>
<line x1="79.000000" y1="107.000000" x2="82.000000" y2="108.000000"  transform="rotate(0.000000,82.000000,108.000000)" style="stroke: black; stroke-width:0.25;"/>
<line x1="79.000000" y1="109.000000" x2="82.000000" y2="108.000000"  transform="rotate(0.000000,82.000000,108.000000)" style="stroke: black; stroke-width:0.25;"/>
<line x1="79.000000" y1="115.000000" x2="82.000000" y2="116.000000"  transform="rotate(0.000000,82.000000,116.000000)" style="stroke: black; stroke-width:0.25;"/>
<line x1="79.000000" y1="117.000000" x2="82.000000" y2="116.000000"  transform="rotate(0.000000,82.000000,116.000000)" style="stroke: black; stroke-width:0.25;"/>
<rect x="83.900000" y="57.000000" width="24.000000" height="24.000000" rx="0.1" ry="0.1" style="stroke:none;fill:#aaaaaa;;filter:url(#filter);"/>
<rect x="82.900000" y="56.000000" width="24.000000" height="24.000000" rx="0" ry="0" style="stroke:none;fill:#f44800;"/>
<text x="94.900000" y="70.000000" font-family="Arial" font-size="7" text-anchor="middle" fill="#FFFFFF">1</text>
<circle cx="104.900000" cy="78.000000" r="1"/>
<rect x="43.900000" y="61.000000" width="24.000000" height="24.000000" rx="0.1" ry="0.1" style="stroke:none;fill:#aaaaaa;;filter:url(#filter);"/>
<rect x="42.900000" y="60.000000" width="24.000000" height="24.000000" rx="0" ry="0" style="stroke:none;fill:#4B71A1;"/>
<text x="54.900000" y="74.000000" font-family="Arial" font-size="7" text-anchor="middle" fill="#FFFFFF">+</text>
<circle cx="64.900000" cy="82.000000" r="1"/>
<line x1="69.900000" y1="75.000000" x2="66.900000" y2="76.000000"  transform="rotate(0.000000,66.900000,76.000000)" style="stroke: black; stroke-width:0.25;"/>
<line x1="69.900000" y1="77.000000" x2="66.900000" y2="76.000000"  transform="rotate(0.000000,66.900000,76.000000)" style="stroke: black; stroke-width:0.25;"/>
<line x1="69.900000" y1="67.000000" x2="66.900000" y2="68.000000"  transform="rotate(0.000000,66.900000,68.000000)" style="stroke: black; stroke-width:0.25;"/>
<line x1="69.900000" y1="69.000000" x2="66.900000" y2="68.000000"  transform="rotate(0.000000,66.900000,68.000000)" style="stroke: black; stroke-width:0.25;"/>
<line x1="109.800000" y1="112.000000" x2="109.800000" y2="108.000000"  style="stroke:black; stroke-linecap:round; stroke-width:0.25;"/>
<line x1="109.800000" y1="108.000000" x2="113.800000" y2="108.000000"  style="stroke:black; stroke-linecap:round; stroke-width:0.25;"/>
<line x1="113.800000" y1="108.000000" x2="113.800000" y2="112.000000"  style="stroke:black; stroke-linecap:round; stroke-width:0.25;"/>
<line x1="25.000000" y1="47.000000" x2="25.000000" y2="137.000000"  style="stroke: black; stroke-linecap:round; stroke-width:0.25; stroke-dasharray:3,3;"/>
<line x1="25.000000" y1="137.000000" x2="124.800000" y2="137.000000"  style="stroke: black; stroke-linecap:round; stroke-width:0.25; stroke-dasharray:3,3;"/>
<line x1="124.800000" y1="137.000000" x2="124.800000" y2="47.000000"  style="stroke: black; stroke-linecap:round; stroke-width:0.25; stroke-dasharray:3,3;"/>
<line x1="25.000000" y1="47.000000" x2="30.000000" y2="47.000000"  style="stroke: black; stroke-linecap:round; stroke-width:0.25; stroke-dasharray:3,3;"/>
<line x1="46.125000" y1="47.000000" x2="124.800000" y2="47.000000"  style="stroke: black; stroke-linecap:round; stroke-width:0.25; stroke-dasharray:3,3;"/>
<text x="30.000000" y="49.000000" font-family="Arial" font-size="7">sig</text>
<rect x="279.100000" y="137.000000" width="24.000000" height="24.000000" rx="0.1" ry="0.1" style="stroke:none;fill:#aaaaaa;;filter:url(#filter);"/>
<rect x="278.100000" y="136.000000" width="24.000000" height="24.000000" rx="0" ry="0" style="stroke:none;fill:#4B71A1;"/>
<text x="290.100000" y="150.000000" font-family="Arial" font-size="7" text-anchor="middle" fill="#FFFFFF">+</text>
<circle cx="280.100000" cy="138.000000" r="1"/>
<line x1="275.100000" y1="143.000000" x2="278.100000" y2="144.000000"  transform="rotate(0.000000,278.100000,144.000000)" style="stroke: black; stroke-width:0.25;"/>
<line x1="275.100000" y1="145.000000" x2="278.100000" y2="144.000000"  transform="rotate(0.000000,278.100000,144.000000)" style="stroke: black; stroke-width:0.25;"/>
<line x1="275.100000" y1="151.000000" x2="278.100000" y2="152.000000"  transform="rotate(0.000000,278.100000,152.000000)" style="stroke: black; stroke-width:0.25;"/>
<line x1="275.100000" y1="153.000000" x2="278.100000" y2="152.000000"  transform="rotate(0.000000,278.100000,152.000000)" style="stroke: black; stroke-width:0.25;"/>
<rect x="227.250000" y="95.000000" width="167.700000" height="24.000000" rx="0.1" ry="0.1" style="stroke:none;fill:#aaaaaa;;filter:url(#filter);"/>
<rect x="226.250000" y="94.000000" width="167.700000" height="24.000000" rx="0" ry="0" style="stroke:none;fill:#477881;"/>
<text x="310.100000" y="108.000000" font-family="Arial" font-size="7" text-anchor="middle" fill="#FFFFFF">hslider(Gain, 0.0f, 0.0f, 1.0f, 0.01f)</text>
<circle cx="391.950000" cy="116.000000" r="1"/>
<line x1="217.250000" y1="85.000000" x2="217.250000" y2="127.000000"  style="stroke: black; stroke-linecap:round; stroke-width:0.25; stroke-dasharray:3,3;"/>
<line x1="217.250000" y1="127.000000" x2="402.950000" y2="127.000000"  style="stroke: black; stroke-linecap:round; stroke-width:0.25; stroke-dasharray:3,3;"/>
<line x1="402.950000" y1="127.000000" x2="402.950000" y2="85.000000"  style="stroke: black; stroke-linecap:round; stroke-width:0.25; stroke-dasharray:3,3;"/>
<line x1="217.250000" y1="85.000000" x2="222.250000" y2="85.000000"  style="stroke: black; stroke-linecap:round; stroke-width:0.25; stroke-dasharray:3,3;"/>
<line x1="241.600000" y1="85.000000" x2="402.950000" y2="85.000000"  style="stroke: black; stroke-linecap:round; stroke-width:0.25; stroke-dasharray:3,3;"/>
<text x="222.250000" y="87.000000" font-family="Arial" font-size="7">gain</text>
<rect x="240.800000" y="35.000000" width="180.600000" height="24.000000" rx="0.1" ry="0.1" style="stroke:none;fill:#aaaaaa;;filter:url(#filter);"/>
<rect x="239.800000" y="34.000000" width="180.600000" height="24.000000" rx="0" ry="0" style="stroke:none;fill:#477881;"/>
<text x="330.100000" y="48.000000" font-family="Arial" font-size="7" text-anchor="middle" fill="#FFFFFF">hslider(Delay, 0.0f, 0.0f, 10000.0f, 1.0f)</text>
<circle cx="418.400000" cy="56.000000" r="1"/>
<line x1="230.800000" y1="25.000000" x2="230.800000" y2="67.000000"  style="stroke: black; stroke-linecap:round; stroke-width:0.25; stroke-dasharray:3,3;"/>
<line x1="230.800000" y1="67.000000" x2="429.400000" y2="67.000000"  style="stroke: black; stroke-linecap:round; stroke-width:0.25; stroke-dasharray:3,3;"/>
<line x1="429.400000" y1="67.000000" x2="429.400000" y2="25.000000"  style="stroke: black; stroke-linecap:round; stroke-width:0.25; stroke-dasharray:3,3;"/>
<line x1="230.800000" y1="25.000000" x2="235.800000" y2="25.000000"  style="stroke: black; stroke-linecap:round; stroke-width:0.25; stroke-dasharray:3,3;"/>
<line x1="258.375000" y1="25.000000" x2="429.400000" y2="25.000000"  style="stroke: black; stroke-linecap:round; stroke-width:0.25; stroke-dasharray:3,3;"/>
<text x="235.800000" y="27.000000" font-family="Arial" font-size="7">delay</text>
<rect x="190.800000" y="39.000000" width="24.000000" height="24.000000" rx="0.1" ry="0.1" style="stroke:none;fill:#aaaaaa;;filter:url(#filter);"/>
<rect x="189.800000" y="38.000000" width="24.000000" height="24.000000" rx="0" ry="0" style="stroke:none;fill:#4B71A1;"/>
<text x="201.800000" y="52.000000" font-family="Arial" font-size="7" text-anchor="middle" fill="#FFFFFF">@</text>
<circle cx="211.800000" cy="60.000000" r="1"/>
<line x1="216.800000" y1="53.000000" x2="213.800000" y2="54.000000"  transform="rotate(0.000000,213.800000,54.000000)" style="stroke: black; stroke-width:0.25;"/>
<line x1="216.800000" y1="55.000000" x2="213.800000" y2="54.000000"  transform="rotate(0.000000,213.800000,54.000000)" style="stroke: black; stroke-width:0.25;"/>
<line x1="216.800000" y1="45.000000" x2="213.800000" y2="46.000000"  transform="rotate(0.000000,213.800000,46.000000)" style="stroke: black; stroke-width:0.25;"/>
<line x1="216.800000" y1="47.000000" x2="213.800000" y2="46.000000"  transform="rotate(0.000000,213.800000,46.000000)" style="stroke: black; stroke-width:0.25;"/>
<rect x="150.800000" y="65.000000" width="24.000000" height="24.000000" rx="0.1" ry="0.1" style="stroke:none;fill:#aaaaaa;;filter:url(#filter);"/>
<rect x="149.800000" y="64.000000" width="24.000000" height="24.000000" rx="0" ry="0" style="stroke:none;fill:#4B71A1;"/>
<text x="161.800000" y="78.000000" font-family="Arial" font-size="7" text-anchor="middle" fill="#FFFFFF">*</text>
<circle cx="171.800000" cy="86.000000" r="1"/>
<line x1="176.800000" y1="79.000000" x2="173.800000" y2="80.000000"  transform="rotate(0.000000,173.800000,80.000000)" style="stroke: black; stroke-width:0.25;"/>
<line x1="176.800000" y1="81.000000" x2="173.800000" y2="80.000000"  transform="rotate(0.000000,173.800000,80.000000)" style="stroke: black; stroke-width:0.25;"/>
<line x1="176.800000" y1="71.000000" x2="173.800000" y2="72.000000"  transform="rotate(0.000000,173.800000,72.000000)" style="stroke: black; stroke-width:0.25;"/>
<line x1="176.800000" y1="73.000000" x2="173.800000" y2="72.000000"  transform="rotate(0.000000,173.800000,72.000000)" style="stroke: black; stroke-width:0.25;"/>
<line x1="432.400000" y1="148.000000" x2="432.400000" y2="144.000000"  style="stroke:black; stroke-linecap:round; stroke-width:0.25;"/>
<line x1="432.400000" y1="144.000000" x2="436.400000" y2="144.000000"  style="stroke:black; stroke-linecap:round; stroke-width:0.25;"/>
<line x1="436.400000" y1="144.000000" x2="436.400000" y2="148.000000"  style="stroke:black; stroke-linecap:round; stroke-width:0.25;"/>
<line x1="15.000000" y1="15.000000" x2="15.000000" y2="169.000000"  style="stroke: black; stroke-linecap:round; stroke-width:0.25; stroke-dasharray:3,3;"/>
<line x1="15.000000" y1="169.000000" x2="463.400000" y2="169.000000"  style="stroke: black; stroke-linecap:round; stroke-width:0.25; stroke-dasharray:3,3;"/>
<line x1="463.400000" y1="169.000000" x2="463.400000" y2="15.000000"  style="stroke: black; stroke-linecap:round; stroke-width:0.25; stroke-dasharray:3,3;"/>
<line x1="15.000000" y1="15.000000" x2="20.000000" y2="15.000000"  style="stroke: black; stroke-linecap:round; stroke-width:0.25; stroke-dasharray:3,3;"/>
<line x1="49.025000" y1="15.000000" x2="463.400000" y2="15.000000"  style="stroke: black; stroke-linecap:round; stroke-width:0.25; stroke-dasharray:3,3;"/>
<text x="20.000000" y="17.000000" font-family="Arial" font-size="7">process</text>
<line x1="465.400000" y1="91.000000" x2="468.400000" y2="92.000000"  transform="rotate(0.000000,468.400000,92.000000)" style="stroke: black; stroke-width:0.25;"/>
<line x1="465.400000" y1="93.000000" x2="468.400000" y2="92.000000"  transform="rotate(0.000000,468.400000,92.000000)" style="stroke: black; stroke-width:0.25;"/>
<line x1="38.000000" y1="72.000000" x2="38.000000" y2="72.000000"  style="stroke:black; stroke-linecap:round; stroke-width:0.25;"/>
<line x1="38.000000" y1="72.000000" x2="38.000000" y2="96.000000"  style="stroke:black; stroke-linecap:round; stroke-width:0.25;"/>
<line x1="38.000000" y1="96.000000" x2="38.000000" y2="96.000000"  style="stroke:black; stroke-linecap:round; stroke-width:0.25;"/>
<line x1="38.000000" y1="96.000000" x2="54.000000" y2="96.000000"  style="stroke:black; stroke-linecap:round; stroke-width:0.25;"/>
<line x1="38.900000" y1="72.000000" x2="38.000000" y2="72.000000"  style="stroke:black; stroke-linecap:round; stroke-width:0.25;"/>
<line x1="42.900000" y1="72.000000" x2="38.900000" y2="72.000000"  style="stroke:black; stroke-linecap:round; stroke-width:0.25;"/>
<line x1="54.000000" y1="96.000000" x2="70.000000" y2="96.000000"  style="stroke:black; stroke-linecap:round; stroke-width:0.25;"/>
<line x1="66.000000" y1="116.000000" x2="70.000000" y2="116.000000"  style="stroke:black; stroke-linecap:round; stroke-width:0.25;"/>
<line x1="70.000000" y1="96.000000" x2="78.000000" y2="96.000000"  style="stroke:black; stroke-linecap:round; stroke-width:0.25;"/>
<line x1="70.000000" y1="116.000000" x2="78.000000" y2="116.000000"  style="stroke:black; stroke-linecap:round; stroke-width:0.25;"/>
<line x1="70.900000" y1="68.000000" x2="66.900000" y2="68.000000"  style="stroke:black; stroke-linecap:round; stroke-width:0.25;"/>
<line x1="70.900000" y1="76.000000" x2="66.900000" y2="76.000000"  style="stroke:black; stroke-linecap:round; stroke-width:0.25;"/>
<line x1="70.900000" y1="76.000000" x2="70.900000" y2="76.000000"  style="stroke:black; stroke-linecap:round; stroke-width:0.25;"/>
<line x1="70.900000" y1="88.000000" x2="70.900000" y2="76.000000"  style="stroke:black; stroke-linecap:round; stroke-width:0.25;"/>
<line x1="78.000000" y1="96.000000" x2="78.000000" y2="108.000000"  style="stroke:black; stroke-linecap:round; stroke-width:0.25;"/>
<line x1="78.000000" y1="108.000000" x2="78.000000" y2="108.000000"  style="stroke:black; stroke-linecap:round; stroke-width:0.25;"/>
<line x1="78.000000" y1="108.000000" x2="82.000000" y2="108.000000"  style="stroke:black; stroke-linecap:round; stroke-width:0.25;"/>
<line x1="78.000000" y1="116.000000" x2="82.000000" y2="116.000000"  style="stroke:black; stroke-linecap:round; stroke-width:0.25;"/>
<line x1="78.900000" y1="68.000000" x2="70.900000" y2="68.000000"  style="stroke:black; stroke-linecap:round; stroke-width:0.25;"/>
<line x1="78.900000" y1="88.000000" x2="70.900000" y2="88.000000"  style="stroke:black; stroke-linecap:round; stroke-width:0.25;"/>
<line x1="82.900000" y1="68.000000" x2="78.900000" y2="68.000000"  style="stroke:black; stroke-linecap:round; stroke-width:0.25;"/>
<line x1="94.900000" y1="88.000000" x2="78.900000" y2="88.000000"  style="stroke:black; stroke-linecap:round; stroke-width:0.25;"/>
<line x1="107.800000" y1="112.000000" x2="111.800000" y2="112.000000"  style="stroke:black; stroke-linecap:round; stroke-width:0.25;"/>
<line x1="110.900000" y1="88.000000" x2="94.900000" y2="88.000000"  style="stroke:black; stroke-linecap:round; stroke-width:0.25;"/>
<line x1="111.800000" y1="88.000000" x2="111.800000" y2="88.000000"  style="stroke:black; stroke-linecap:round; stroke-width:0.25;"/>
<line x1="111.800000" y1="108.000000" x2="111.800000" y2="88.000000"  style="stroke:black; stroke-linecap:round; stroke-width:0.25;"/>
<line x1="111.800000" y1="112.000000" x2="113.800000" y2="112.000000"  style="stroke:black; stroke-linecap:round; stroke-width:0.25;"/>
<line x1="111.800000" y1="88.000000" x2="110.900000" y2="88.000000"  style="stroke:black; stroke-linecap:round; stroke-width:0.25;"/>
<line x1="113.800000" y1="112.000000" x2="119.800000" y2="112.000000"  style="stroke:black; stroke-linecap:round; stroke-width:0.25;"/>
<line x1="119.800000" y1="112.000000" x2="129.800000" y2="112.000000"  style="stroke:black; stroke-linecap:round; stroke-width:0.25;"/>
<line x1="129.800000" y1="112.000000" x2="137.800000" y2="112.000000"  style="stroke:black; stroke-linecap:round; stroke-width:0.25;"/>
<line x1="137.800000" y1="112.000000" x2="137.800000" y2="152.000000"  style="stroke:black; stroke-linecap:round; stroke-width:0.25;"/>
<line x1="137.800000" y1="152.000000" x2="137.800000" y2="152.000000"  style="stroke:black; stroke-linecap:round; stroke-width:0.25;"/>
<line x1="137.800000" y1="152.000000" x2="145.800000" y2="152.000000"  style="stroke:black; stroke-linecap:round; stroke-width:0.25;"/>
<line x1="145.800000" y1="76.000000" x2="145.800000" y2="76.000000"  style="stroke:black; stroke-linecap:round; stroke-width:0.25;"/>
<line x1="145.800000" y1="76.000000" x2="145.800000" y2="144.000000"  style="stroke:black; stroke-linecap:round; stroke-width:0.25;"/>
<line x1="145.800000" y1="144.000000" x2="145.800000" y2="144.000000"  style="stroke:black; stroke-linecap:round; stroke-width:0.25;"/>
<line x1="145.800000" y1="144.000000" x2="274.100000" y2="144.000000"  style="stroke:black; stroke-linecap:round; stroke-width:0.25;"/>
<line x1="145.800000" y1="152.000000" x2="274.100000" y2="152.000000"  style="stroke:black; stroke-linecap:round; stroke-width:0.25;"/>
<line x1="149.800000" y1="76.000000" x2="145.800000" y2="76.000000"  style="stroke:black; stroke-linecap:round; stroke-width:0.25;"/>
<line x1="177.800000" y1="72.000000" x2="173.800000" y2="72.000000"  style="stroke:black; stroke-linecap:round; stroke-width:0.25;"/>
<line x1="177.800000" y1="80.000000" x2="173.800000" y2="80.000000"  style="stroke:black; stroke-linecap:round; stroke-width:0.25;"/>
<line x1="177.800000" y1="80.000000" x2="177.800000" y2="80.000000"  style="stroke:black; stroke-linecap:round; stroke-width:0.25;"/>
<line x1="177.800000" y1="106.000000" x2="177.800000" y2="80.000000"  style="stroke:black; stroke-linecap:round; stroke-width:0.25;"/>
<line x1="185.800000" y1="50.000000" x2="185.800000" y2="50.000000"  style="stroke:black; stroke-linecap:round; stroke-width:0.25;"/>
<line x1="185.800000" y1="50.000000" x2="185.800000" y2="72.000000"  style="stroke:black; stroke-linecap:round; stroke-width:0.25;"/>
<line x1="185.800000" y1="72.000000" x2="177.800000" y2="72.000000"  style="stroke:black; stroke-linecap:round; stroke-width:0.25;"/>
<line x1="185.800000" y1="106.000000" x2="177.800000" y2="106.000000"  style="stroke:black; stroke-linecap:round; stroke-width:0.25;"/>
<line x1="189.800000" y1="50.000000" x2="185.800000" y2="50.000000"  style="stroke:black; stroke-linecap:round; stroke-width:0.25;"/>
<line x1="212.250000" y1="106.000000" x2="185.800000" y2="106.000000"  style="stroke:black; stroke-linecap:round; stroke-width:0.25;"/>
<line x1="217.800000" y1="46.000000" x2="213.800000" y2="46.000000"  style="stroke:black; stroke-linecap:round; stroke-width:0.25;"/>
<line x1="217.800000" y1="54.000000" x2="213.800000" y2="54.000000"  style="stroke:black; stroke-linecap:round; stroke-width:0.25;"/>
<line x1="217.800000" y1="54.000000" x2="217.800000" y2="54.000000"  style="stroke:black; stroke-linecap:round; stroke-width:0.25;"/>
<line x1="217.800000" y1="76.000000" x2="217.800000" y2="54.000000"  style="stroke:black; stroke-linecap:round; stroke-width:0.25;"/>
<line x1="222.250000" y1="106.000000" x2="212.250000" y2="106.000000"  style="stroke:black; stroke-linecap:round; stroke-width:0.25;"/>
<line x1="225.800000" y1="46.000000" x2="217.800000" y2="46.000000"  style="stroke:black; stroke-linecap:round; stroke-width:0.25;"/>
<line x1="225.800000" y1="76.000000" x2="217.800000" y2="76.000000"  style="stroke:black; stroke-linecap:round; stroke-width:0.25;"/>
<line x1="226.250000" y1="106.000000" x2="222.250000" y2="106.000000"  style="stroke:black; stroke-linecap:round; stroke-width:0.25;"/>
<line x1="235.800000" y1="46.000000" x2="225.800000" y2="46.000000"  style="stroke:black; stroke-linecap:round; stroke-width:0.25;"/>
<line x1="239.800000" y1="46.000000" x2="235.800000" y2="46.000000"  style="stroke:black; stroke-linecap:round; stroke-width:0.25;"/>
<line x1="274.100000" y1="144.000000" x2="278.100000" y2="144.000000"  style="stroke:black; stroke-linecap:round; stroke-width:0.25;"/>
<line x1="274.100000" y1="152.000000" x2="278.100000" y2="152.000000"  style="stroke:black; stroke-linecap:round; stroke-width:0.25;"/>
<line x1="302.100000" y1="148.000000" x2="306.100000" y2="148.000000"  style="stroke:black; stroke-linecap:round; stroke-width:0.25;"/>
<line x1="306.100000" y1="148.000000" x2="434.400000" y2="148.000000"  style="stroke:black; stroke-linecap:round; stroke-width:0.25;"/>
<line x1="330.100000" y1="76.000000" x2="225.800000" y2="76.000000"  style="stroke:black; stroke-linecap:round; stroke-width:0.25;"/>
<line x1="434.400000" y1="76.000000" x2="330.100000" y2="76.000000"  style="stroke:black; stroke-linecap:round; stroke-width:0.25;"/>
<line x1="434.400000" y1="76.000000" x2="434.400000" y2="76.000000"  style="stroke:black; stroke-linecap:round; stroke-width:0.25;"/>
<line x1="434.400000" y1="144.000000" x2="434.400000" y2="76.000000"  style="stroke:black; stroke-linecap:round; stroke-width:0.25;"/>
<line x1="434.400000" y1="148.000000" x2="436.400000" y2="148.000000"  style="stroke:black; stroke-linecap:round; stroke-width:0.25;"/>
<line x1="436.400000" y1="148.000000" x2="442.400000" y2="148.000000"  style="stroke:black; stroke-linecap:round; stroke-width:0.25;"/>
<line x1="442.400000" y1="92.000000" x2="450.400000" y2="92.000000"  style="stroke:black; stroke-linecap:round; stroke-width:0.25;"/>
<line x1="442.400000" y1="148.000000" x2="442.400000" y2="92.000000"  style="stroke:black; stroke-linecap:round; stroke-width:0.25;"/>
<line x1="442.400000" y1="148.000000" x2="442.400000" y2="148.000000"  style="stroke:black; stroke-linecap:round; stroke-width:0.25;"/>
<line x1="450.400000" y1="92.000000" x2="454.400000" y2="92.000000"  style="stroke:black; stroke-linecap:round; stroke-width:0.25;"/>
<line x1="454.400000" y1="92.000000" x2="458.400000" y2="92.000000"  style="stroke:black; stroke-linecap:round; stroke-width:0.25;"/>
<line x1="458.400000" y1="92.000000" x2="468.400000" y2="92.000000"  style="stroke:black; stroke-linecap:round; stroke-width:0.25;"/>
</svg>
