<?xml version="1.0"?>
<svg xmlns="http://www.w3.org/2000/svg" xmlns:xlink="http://www.w3.org/1999/xlink" viewBox="0 0 113.800000 104.000000" width="56.900000mm" height="52.000000mm" version="1.1">
<defs>
   <filter id="filter" filterRes="18" x="0" y="0">
     <feGaussianBlur in="SourceGraphic" stdDeviation="1.55" result="blur"/>
     <feOffset in="blur" dx="3" dy="3"/>
   </filter>
</defs>
<rect x="1.000000" y="1.000000" width="112.800000" height="103.000000" rx="0.1" ry="0.1" style="stroke:none;fill:#aaaaaa;;filter:url(#filter);"/>
<rect x="0.000000" y="0.000000" width="112.800000" height="103.000000" rx="0" ry="0" style="stroke:none;fill:#ffffff;"/>
<text x="10.000000" y="7.000000" font-family="Arial" font-size="7"></text>
<a xlink:href="signal-0x7f9a24125c40.svg">
<rect x="25.000000" y="41.000000" width="25.800000" height="24.000000" rx="0.1" ry="0.1" style="stroke:none;fill:#aaaaaa;;filter:url(#filter);"/>
<rect x="24.000000" y="40.000000" width="25.800000" height="24.000000" rx="0" ry="0" style="stroke:none;fill:#003366;"/>
</a>
<a xlink:href="signal-0x7f9a24125c40.svg">
<text x="36.900000" y="54.000000" font-family="Arial" font-size="7" text-anchor="middle" fill="#FFFFFF">signal</text>
</a>
<circle cx="26.000000" cy="42.000000" r="1"/>
<line x1="15.000000" y1="15.000000" x2="15.000000" y2="89.000000"  style="stroke: black; stroke-linecap:round; stroke-width:0.25; stroke-dasharray:3,3;"/>
<line x1="15.000000" y1="89.000000" x2="98.800000" y2="89.000000"  style="stroke: black; stroke-linecap:round; stroke-width:0.25; stroke-dasharray:3,3;"/>
<line x1="98.800000" y1="89.000000" x2="98.800000" y2="15.000000"  style="stroke: black; stroke-linecap:round; stroke-width:0.25; stroke-dasharray:3,3;"/>
<line x1="15.000000" y1="15.000000" x2="20.000000" y2="15.000000"  style="stroke: black; stroke-linecap:round; stroke-width:0.25; stroke-dasharray:3,3;"/>
<line x1="49.025000" y1="15.000000" x2="98.800000" y2="15.000000"  style="stroke: black; stroke-linecap:round; stroke-width:0.25; stroke-dasharray:3,3;"/>
<text x="20.000000" y="17.000000" font-family="Arial" font-size="7">process</text>
<line x1="100.800000" y1="23.000000" x2="103.800000" y2="24.000000"  transform="rotate(0.000000,103.800000,24.000000)" style="stroke: black; stroke-width:0.25;"/>
<line x1="100.800000" y1="25.000000" x2="103.800000" y2="24.000000"  transform="rotate(0.000000,103.800000,24.000000)" style="stroke: black; stroke-width:0.25;"/>
<line x1="100.800000" y1="31.000000" x2="103.800000" y2="32.000000"  transform="rotate(0.000000,103.800000,32.000000)" style="stroke: black; stroke-width:0.25;"/>
<line x1="100.800000" y1="33.000000" x2="103.800000" y2="32.000000"  transform="rotate(0.000000,103.800000,32.000000)" style="stroke: black; stroke-width:0.25;"/>
<line x1="100.800000" y1="39.000000" x2="103.800000" y2="40.000000"  transform="rotate(0.000000,103.800000,40.000000)" style="stroke: black; stroke-width:0.25;"/>
<line x1="100.800000" y1="41.000000" x2="103.800000" y2="40.000000"  transform="rotate(0.000000,103.800000,40.000000)" style="stroke: black; stroke-width:0.25;"/>
<line x1="100.800000" y1="47.000000" x2="103.800000" y2="48.000000"  transform="rotate(0.000000,103.800000,48.000000)" style="stroke: black; stroke-width:0.25;"/>
<line x1="100.800000" y1="49.000000" x2="103.800000" y2="48.000000"  transform="rotate(0.000000,103.800000,48.000000)" style="stroke: black; stroke-width:0.25;"/>
<line x1="100.800000" y1="55.000000" x2="103.800000" y2="56.000000"  transform="rotate(0.000000,103.800000,56.000000)" style="stroke: black; stroke-width:0.25;"/>
<line x1="100.800000" y1="57.000000" x2="103.800000" y2="56.000000"  transform="rotate(0.000000,103.800000,56.000000)" style="stroke: black; stroke-width:0.25;"/>
<line x1="100.800000" y1="63.000000" x2="103.800000" y2="64.000000"  transform="rotate(0.000000,103.800000,64.000000)" style="stroke: black; stroke-width:0.25;"/>
<line x1="100.800000" y1="65.000000" x2="103.800000" y2="64.000000"  transform="rotate(0.000000,103.800000,64.000000)" style="stroke: black; stroke-width:0.25;"/>
<line x1="100.800000" y1="71.000000" x2="103.800000" y2="72.000000"  transform="rotate(0.000000,103.800000,72.000000)" style="stroke: black; stroke-width:0.25;"/>
<line x1="100.800000" y1="73.000000" x2="103.800000" y2="72.000000"  transform="rotate(0.000000,103.800000,72.000000)" style="stroke: black; stroke-width:0.25;"/>
<line x1="100.800000" y1="79.000000" x2="103.800000" y2="80.000000"  transform="rotate(0.000000,103.800000,80.000000)" style="stroke: black; stroke-width:0.25;"/>
<line x1="100.800000" y1="81.000000" x2="103.800000" y2="80.000000"  transform="rotate(0.000000,103.800000,80.000000)" style="stroke: black; stroke-width:0.25;"/>
<line x1="49.800000" y1="52.000000" x2="53.800000" y2="52.000000"  style="stroke:black; stroke-linecap:round; stroke-width:0.25;"/>
<line x1="53.800000" y1="52.000000" x2="77.800000" y2="24.000000"  style="stroke:black; stroke-linecap:round; stroke-width:0.25;"/>
<line x1="53.800000" y1="52.000000" x2="77.800000" y2="32.000000"  style="stroke:black; stroke-linecap:round; stroke-width:0.25;"/>
<line x1="53.800000" y1="52.000000" x2="77.800000" y2="40.000000"  style="stroke:black; stroke-linecap:round; stroke-width:0.25;"/>
<line x1="53.800000" y1="52.000000" x2="77.800000" y2="48.000000"  style="stroke:black; stroke-linecap:round; stroke-width:0.25;"/>
<line x1="53.800000" y1="52.000000" x2="77.800000" y2="56.000000"  style="stroke:black; stroke-linecap:round; stroke-width:0.25;"/>
<line x1="53.800000" y1="52.000000" x2="77.800000" y2="64.000000"  style="stroke:black; stroke-linecap:round; stroke-width:0.25;"/>
<line x1="53.800000" y1="52.000000" x2="77.800000" y2="72.000000"  style="stroke:black; stroke-linecap:round; stroke-width:0.25;"/>
<line x1="53.800000" y1="52.000000" x2="77.800000" y2="80.000000"  style="stroke:black; stroke-linecap:round; stroke-width:0.25;"/>
<line x1="77.800000" y1="24.000000" x2="81.800000" y2="24.000000"  style="stroke:black; stroke-linecap:round; stroke-width:0.25;"/>
<line x1="77.800000" y1="32.000000" x2="81.800000" y2="32.000000"  style="stroke:black; stroke-linecap:round; stroke-width:0.25;"/>
<line x1="77.800000" y1="40.000000" x2="81.800000" y2="40.000000"  style="stroke:black; stroke-linecap:round; stroke-width:0.25;"/>
<line x1="77.800000" y1="48.000000" x2="81.800000" y2="48.000000"  style="stroke:black; stroke-linecap:round; stroke-width:0.25;"/>
<line x1="77.800000" y1="56.000000" x2="81.800000" y2="56.000000"  style="stroke:black; stroke-linecap:round; stroke-width:0.25;"/>
<line x1="77.800000" y1="64.000000" x2="81.800000" y2="64.000000"  style="stroke:black; stroke-linecap:round; stroke-width:0.25;"/>
<line x1="77.800000" y1="72.000000" x2="81.800000" y2="72.000000"  style="stroke:black; stroke-linecap:round; stroke-width:0.25;"/>
<line x1="77.800000" y1="80.000000" x2="81.800000" y2="80.000000"  style="stroke:black; stroke-linecap:round; stroke-width:0.25;"/>
<line x1="81.800000" y1="24.000000" x2="85.800000" y2="24.000000"  style="stroke:black; stroke-linecap:round; stroke-width:0.25;"/>
<line x1="81.800000" y1="32.000000" x2="85.800000" y2="32.000000"  style="stroke:black; stroke-linecap:round; stroke-width:0.25;"/>
<line x1="81.800000" y1="40.000000" x2="85.800000" y2="40.000000"  style="stroke:black; stroke-linecap:round; stroke-width:0.25;"/>
<line x1="81.800000" y1="48.000000" x2="85.800000" y2="48.000000"  style="stroke:black; stroke-linecap:round; stroke-width:0.25;"/>
<line x1="81.800000" y1="56.000000" x2="85.800000" y2="56.000000"  style="stroke:black; stroke-linecap:round; stroke-width:0.25;"/>
<line x1="81.800000" y1="64.000000" x2="85.800000" y2="64.000000"  style="stroke:black; stroke-linecap:round; stroke-width:0.25;"/>
<line x1="81.800000" y1="72.000000" x2="85.800000" y2="72.000000"  style="stroke:black; stroke-linecap:round; stroke-width:0.25;"/>
<line x1="81.800000" y1="80.000000" x2="85.800000" y2="80.000000"  style="stroke:black; stroke-linecap:round; stroke-width:0.25;"/>
<line x1="85.800000" y1="24.000000" x2="85.800000" y2="24.000000"  style="stroke:black; stroke-linecap:round; stroke-width:0.25;"/>
<line x1="85.800000" y1="24.000000" x2="89.800000" y2="24.000000"  style="stroke:black; stroke-linecap:round; stroke-width:0.25;"/>
<line x1="85.800000" y1="32.000000" x2="85.800000" y2="32.000000"  style="stroke:black; stroke-linecap:round; stroke-width:0.25;"/>
<line x1="85.800000" y1="32.000000" x2="89.800000" y2="32.000000"  style="stroke:black; stroke-linecap:round; stroke-width:0.25;"/>
<line x1="85.800000" y1="40.000000" x2="85.800000" y2="40.000000"  style="stroke:black; stroke-linecap:round; stroke-width:0.25;"/>
<line x1="85.800000" y1="40.000000" x2="89.800000" y2="40.000000"  style="stroke:black; stroke-linecap:round; stroke-width:0.25;"/>
<line x1="85.800000" y1="48.000000" x2="85.800000" y2="48.000000"  style="stroke:black; stroke-linecap:round; stroke-width:0.25;"/>
<line x1="85.800000" y1="48.000000" x2="89.800000" y2="48.000000"  style="stroke:black; stroke-linecap:round; stroke-width:0.25;"/>
<line x1="85.800000" y1="56.000000" x2="85.800000" y2="56.000000"  style="stroke:black; stroke-linecap:round; stroke-width:0.25;"/>
<line x1="85.800000" y1="56.000000" x2="89.800000" y2="56.000000"  style="stroke:black; stroke-linecap:round; stroke-width:0.25;"/>
<line x1="85.800000" y1="64.000000" x2="85.800000" y2="64.000000"  style="stroke:black; stroke-linecap:round; stroke-width:0.25;"/>
<line x1="85.800000" y1="64.000000" x2="89.800000" y2="64.000000"  style="stroke:black; stroke-linecap:round; stroke-width:0.25;"/>
<line x1="85.800000" y1="72.000000" x2="85.800000" y2="72.000000"  style="stroke:black; stroke-linecap:round; stroke-width:0.25;"/>
<line x1="85.800000" y1="72.000000" x2="89.800000" y2="72.000000"  style="stroke:black; stroke-linecap:round; stroke-width:0.25;"/>
<line x1="85.800000" y1="80.000000" x2="85.800000" y2="80.000000"  style="stroke:black; stroke-linecap:round; stroke-width:0.25;"/>
<line x1="85.800000" y1="80.000000" x2="89.800000" y2="80.000000"  style="stroke:black; stroke-linecap:round; stroke-width:0.25;"/>
<line x1="89.800000" y1="24.000000" x2="93.800000" y2="24.000000"  style="stroke:black; stroke-linecap:round; stroke-width:0.25;"/>
<line x1="89.800000" y1="32.000000" x2="93.800000" y2="32.000000"  style="stroke:black; stroke-linecap:round; stroke-width:0.25;"/>
<line x1="89.800000" y1="40.000000" x2="93.800000" y2="40.000000"  style="stroke:black; stroke-linecap:round; stroke-width:0.25;"/>
<line x1="89.800000" y1="48.000000" x2="93.800000" y2="48.000000"  style="stroke:black; stroke-linecap:round; stroke-width:0.25;"/>
<line x1="89.800000" y1="56.000000" x2="93.800000" y2="56.000000"  style="stroke:black; stroke-linecap:round; stroke-width:0.25;"/>
<line x1="89.800000" y1="64.000000" x2="93.800000" y2="64.000000"  style="stroke:black; stroke-linecap:round; stroke-width:0.25;"/>
<line x1="89.800000" y1="72.000000" x2="93.800000" y2="72.000000"  style="stroke:black; stroke-linecap:round; stroke-width:0.25;"/>
<line x1="89.800000" y1="80.000000" x2="93.800000" y2="80.000000"  style="stroke:black; stroke-linecap:round; stroke-width:0.25;"/>
<line x1="93.800000" y1="24.000000" x2="103.800000" y2="24.000000"  style="stroke:black; stroke-linecap:round; stroke-width:0.25;"/>
<line x1="93.800000" y1="32.000000" x2="103.800000" y2="32.000000"  style="stroke:black; stroke-linecap:round; stroke-width:0.25;"/>
<line x1="93.800000" y1="40.000000" x2="103.800000" y2="40.000000"  style="stroke:black; stroke-linecap:round; stroke-width:0.25;"/>
<line x1="93.800000" y1="48.000000" x2="103.800000" y2="48.000000"  style="stroke:black; stroke-linecap:round; stroke-width:0.25;"/>
<line x1="93.800000" y1="56.000000" x2="103.800000" y2="56.000000"  style="stroke:black; stroke-linecap:round; stroke-width:0.25;"/>
<line x1="93.800000" y1="64.000000" x2="103.800000" y2="64.000000"  style="stroke:black; stroke-linecap:round; stroke-width:0.25;"/>
<line x1="93.800000" y1="72.000000" x2="103.800000" y2="72.000000"  style="stroke:black; stroke-linecap:round; stroke-width:0.25;"/>
<line x1="93.800000" y1="80.000000" x2="103.800000" y2="80.000000"  style="stroke:black; stroke-linecap:round; stroke-width:0.25;"/>
</svg>
