<?xml version="1.0"?>
<svg xmlns="http://www.w3.org/2000/svg" xmlns:xlink="http://www.w3.org/1999/xlink" viewBox="0 0 420.100000 100.000000" width="210.050000mm" height="50.000000mm" version="1.1">
<defs>
   <filter id="filter" filterRes="18" x="0" y="0">
     <feGaussianBlur in="SourceGraphic" stdDeviation="1.55" result="blur"/>
     <feOffset in="blur" dx="3" dy="3"/>
   </filter>
</defs>
<rect x="1.000000" y="1.000000" width="419.100000" height="99.000000" rx="0.1" ry="0.1" style="stroke:none;fill:#aaaaaa;;filter:url(#filter);"/>
<rect x="0.000000" y="0.000000" width="419.100000" height="99.000000" rx="0" ry="0" style="stroke:none;fill:#ffffff;"/>
<text x="10.000000" y="7.000000" font-family="Arial" font-size="7"></text>
<a xlink:href="noise-0x7fc8dc04b8d0.svg">
<rect x="25.000000" y="39.000000" width="25.800000" height="24.000000" rx="0.1" ry="0.1" style="stroke:none;fill:#aaaaaa;;filter:url(#filter);"/>
<rect x="24.000000" y="38.000000" width="25.800000" height="24.000000" rx="0" ry="0" style="stroke:none;fill:#003366;"/>
</a>
<a xlink:href="noise-0x7fc8dc04b8d0.svg">
<text x="36.900000" y="52.000000" font-family="Arial" font-size="7" text-anchor="middle" fill="#FFFFFF">noise</text>
</a>
<circle cx="26.000000" cy="40.000000" r="1"/>
<rect x="76.800000" y="43.000000" width="51.600000" height="24.000000" rx="0.1" ry="0.1" style="stroke:none;fill:#aaaaaa;;filter:url(#filter);"/>
<rect x="75.800000" y="42.000000" width="51.600000" height="24.000000" rx="0" ry="0" style="stroke:none;fill:#477881;"/>
<text x="101.600000" y="56.000000" font-family="Arial" font-size="7" text-anchor="middle" fill="#FFFFFF">button(gate)</text>
<circle cx="77.800000" cy="44.000000" r="1"/>
<line x1="66.800000" y1="33.000000" x2="66.800000" y2="75.000000"  style="stroke: black; stroke-linecap:round; stroke-width:0.25; stroke-dasharray:3,3;"/>
<line x1="66.800000" y1="75.000000" x2="136.400000" y2="75.000000"  style="stroke: black; stroke-linecap:round; stroke-width:0.25; stroke-dasharray:3,3;"/>
<line x1="136.400000" y1="75.000000" x2="136.400000" y2="33.000000"  style="stroke: black; stroke-linecap:round; stroke-width:0.25; stroke-dasharray:3,3;"/>
<line x1="66.800000" y1="33.000000" x2="71.800000" y2="33.000000"  style="stroke: black; stroke-linecap:round; stroke-width:0.25; stroke-dasharray:3,3;"/>
<line x1="91.150000" y1="33.000000" x2="136.400000" y2="33.000000"  style="stroke: black; stroke-linecap:round; stroke-width:0.25; stroke-dasharray:3,3;"/>
<text x="71.800000" y="35.000000" font-family="Arial" font-size="7">gate</text>
<a xlink:href="trigger-0x7fc8dc06b8a0.svg">
<rect x="146.400000" y="43.000000" width="129.000000" height="24.000000" rx="0.1" ry="0.1" style="stroke:none;fill:#aaaaaa;;filter:url(#filter);"/>
<rect x="145.400000" y="42.000000" width="129.000000" height="24.000000" rx="0" ry="0" style="stroke:none;fill:#003366;"/>
</a>
<a xlink:href="trigger-0x7fc8dc06b8a0.svg">
<text x="209.900000" y="56.000000" font-family="Arial" font-size="7" text-anchor="middle" fill="#FFFFFF">trigger((1920...9f : *)) : /)</text>
</a>
<circle cx="147.400000" cy="44.000000" r="1"/>
<line x1="142.400000" y1="53.000000" x2="145.400000" y2="54.000000"  transform="rotate(0.000000,145.400000,54.000000)" style="stroke: black; stroke-width:0.25;"/>
<line x1="142.400000" y1="55.000000" x2="145.400000" y2="54.000000"  transform="rotate(0.000000,145.400000,54.000000)" style="stroke: black; stroke-width:0.25;"/>
<rect x="291.400000" y="39.000000" width="24.000000" height="24.000000" rx="0.1" ry="0.1" style="stroke:none;fill:#aaaaaa;;filter:url(#filter);"/>
<rect x="290.400000" y="38.000000" width="24.000000" height="24.000000" rx="0" ry="0" style="stroke:none;fill:#4B71A1;"/>
<text x="302.400000" y="52.000000" font-family="Arial" font-size="7" text-anchor="middle" fill="#FFFFFF">*</text>
<circle cx="292.400000" cy="40.000000" r="1"/>
<line x1="287.400000" y1="45.000000" x2="290.400000" y2="46.000000"  transform="rotate(0.000000,290.400000,46.000000)" style="stroke: black; stroke-width:0.25;"/>
<line x1="287.400000" y1="47.000000" x2="290.400000" y2="46.000000"  transform="rotate(0.000000,290.400000,46.000000)" style="stroke: black; stroke-width:0.25;"/>
<line x1="287.400000" y1="53.000000" x2="290.400000" y2="54.000000"  transform="rotate(0.000000,290.400000,54.000000)" style="stroke: black; stroke-width:0.25;"/>
<line x1="287.400000" y1="55.000000" x2="290.400000" y2="54.000000"  transform="rotate(0.000000,290.400000,54.000000)" style="stroke: black; stroke-width:0.25;"/>
<a xlink:href="resonator-0x7fc8dc074660.svg">
<rect x="323.400000" y="39.000000" width="38.700000" height="24.000000" rx="0.1" ry="0.1" style="stroke:none;fill:#aaaaaa;;filter:url(#filter);"/>
<rect x="322.400000" y="38.000000" width="38.700000" height="24.000000" rx="0" ry="0" style="stroke:none;fill:#003366;"/>
</a>
<a xlink:href="resonator-0x7fc8dc074660.svg">
<text x="341.750000" y="52.000000" font-family="Arial" font-size="7" text-anchor="middle" fill="#FFFFFF">resonator</text>
</a>
<circle cx="324.400000" cy="40.000000" r="1"/>
<line x1="319.400000" y1="49.000000" x2="322.400000" y2="50.000000"  transform="rotate(0.000000,322.400000,50.000000)" style="stroke: black; stroke-width:0.25;"/>
<line x1="319.400000" y1="51.000000" x2="322.400000" y2="50.000000"  transform="rotate(0.000000,322.400000,50.000000)" style="stroke: black; stroke-width:0.25;"/>
<line x1="15.000000" y1="15.000000" x2="15.000000" y2="85.000000"  style="stroke: black; stroke-linecap:round; stroke-width:0.25; stroke-dasharray:3,3;"/>
<line x1="15.000000" y1="85.000000" x2="405.100000" y2="85.000000"  style="stroke: black; stroke-linecap:round; stroke-width:0.25; stroke-dasharray:3,3;"/>
<line x1="405.100000" y1="85.000000" x2="405.100000" y2="15.000000"  style="stroke: black; stroke-linecap:round; stroke-width:0.25; stroke-dasharray:3,3;"/>
<line x1="15.000000" y1="15.000000" x2="20.000000" y2="15.000000"  style="stroke: black; stroke-linecap:round; stroke-width:0.25; stroke-dasharray:3,3;"/>
<line x1="49.025000" y1="15.000000" x2="405.100000" y2="15.000000"  style="stroke: black; stroke-linecap:round; stroke-width:0.25; stroke-dasharray:3,3;"/>
<text x="20.000000" y="17.000000" font-family="Arial" font-size="7">process</text>
<line x1="407.100000" y1="45.000000" x2="410.100000" y2="46.000000"  transform="rotate(0.000000,410.100000,46.000000)" style="stroke: black; stroke-width:0.25;"/>
<line x1="407.100000" y1="47.000000" x2="410.100000" y2="46.000000"  transform="rotate(0.000000,410.100000,46.000000)" style="stroke: black; stroke-width:0.25;"/>
<line x1="407.100000" y1="53.000000" x2="410.100000" y2="54.000000"  transform="rotate(0.000000,410.100000,54.000000)" style="stroke: black; stroke-width:0.25;"/>
<line x1="407.100000" y1="55.000000" x2="410.100000" y2="54.000000"  transform="rotate(0.000000,410.100000,54.000000)" style="stroke: black; stroke-width:0.25;"/>
<line x1="49.800000" y1="50.000000" x2="53.800000" y2="50.000000"  style="stroke:black; stroke-linecap:round; stroke-width:0.25;"/>
<line x1="53.800000" y1="24.000000" x2="61.800000" y2="24.000000"  style="stroke:black; stroke-linecap:round; stroke-width:0.25;"/>
<line x1="53.800000" y1="50.000000" x2="53.800000" y2="24.000000"  style="stroke:black; stroke-linecap:round; stroke-width:0.25;"/>
<line x1="53.800000" y1="50.000000" x2="53.800000" y2="50.000000"  style="stroke:black; stroke-linecap:round; stroke-width:0.25;"/>
<line x1="61.800000" y1="24.000000" x2="170.100000" y2="24.000000"  style="stroke:black; stroke-linecap:round; stroke-width:0.25;"/>
<line x1="127.400000" y1="54.000000" x2="131.400000" y2="54.000000"  style="stroke:black; stroke-linecap:round; stroke-width:0.25;"/>
<line x1="131.400000" y1="54.000000" x2="141.400000" y2="54.000000"  style="stroke:black; stroke-linecap:round; stroke-width:0.25;"/>
<line x1="141.400000" y1="54.000000" x2="141.400000" y2="54.000000"  style="stroke:black; stroke-linecap:round; stroke-width:0.25;"/>
<line x1="141.400000" y1="54.000000" x2="145.400000" y2="54.000000"  style="stroke:black; stroke-linecap:round; stroke-width:0.25;"/>
<line x1="170.100000" y1="24.000000" x2="278.400000" y2="24.000000"  style="stroke:black; stroke-linecap:round; stroke-width:0.25;"/>
<line x1="274.400000" y1="54.000000" x2="278.400000" y2="54.000000"  style="stroke:black; stroke-linecap:round; stroke-width:0.25;"/>
<line x1="278.400000" y1="24.000000" x2="286.400000" y2="24.000000"  style="stroke:black; stroke-linecap:round; stroke-width:0.25;"/>
<line x1="278.400000" y1="54.000000" x2="286.400000" y2="54.000000"  style="stroke:black; stroke-linecap:round; stroke-width:0.25;"/>
<line x1="286.400000" y1="24.000000" x2="286.400000" y2="46.000000"  style="stroke:black; stroke-linecap:round; stroke-width:0.25;"/>
<line x1="286.400000" y1="46.000000" x2="286.400000" y2="46.000000"  style="stroke:black; stroke-linecap:round; stroke-width:0.25;"/>
<line x1="286.400000" y1="46.000000" x2="290.400000" y2="46.000000"  style="stroke:black; stroke-linecap:round; stroke-width:0.25;"/>
<line x1="286.400000" y1="54.000000" x2="290.400000" y2="54.000000"  style="stroke:black; stroke-linecap:round; stroke-width:0.25;"/>
<line x1="314.400000" y1="50.000000" x2="318.400000" y2="50.000000"  style="stroke:black; stroke-linecap:round; stroke-width:0.25;"/>
<line x1="318.400000" y1="50.000000" x2="318.400000" y2="50.000000"  style="stroke:black; stroke-linecap:round; stroke-width:0.25;"/>
<line x1="318.400000" y1="50.000000" x2="322.400000" y2="50.000000"  style="stroke:black; stroke-linecap:round; stroke-width:0.25;"/>
<line x1="361.100000" y1="50.000000" x2="365.100000" y2="50.000000"  style="stroke:black; stroke-linecap:round; stroke-width:0.25;"/>
<line x1="365.100000" y1="50.000000" x2="384.100000" y2="46.000000"  style="stroke:black; stroke-linecap:round; stroke-width:0.25;"/>
<line x1="365.100000" y1="50.000000" x2="384.100000" y2="54.000000"  style="stroke:black; stroke-linecap:round; stroke-width:0.25;"/>
<line x1="384.100000" y1="46.000000" x2="388.100000" y2="46.000000"  style="stroke:black; stroke-linecap:round; stroke-width:0.25;"/>
<line x1="384.100000" y1="54.000000" x2="388.100000" y2="54.000000"  style="stroke:black; stroke-linecap:round; stroke-width:0.25;"/>
<line x1="388.100000" y1="46.000000" x2="392.100000" y2="46.000000"  style="stroke:black; stroke-linecap:round; stroke-width:0.25;"/>
<line x1="388.100000" y1="54.000000" x2="392.100000" y2="54.000000"  style="stroke:black; stroke-linecap:round; stroke-width:0.25;"/>
<line x1="392.100000" y1="46.000000" x2="392.100000" y2="46.000000"  style="stroke:black; stroke-linecap:round; stroke-width:0.25;"/>
<line x1="392.100000" y1="46.000000" x2="396.100000" y2="46.000000"  style="stroke:black; stroke-linecap:round; stroke-width:0.25;"/>
<line x1="392.100000" y1="54.000000" x2="392.100000" y2="54.000000"  style="stroke:black; stroke-linecap:round; stroke-width:0.25;"/>
<line x1="392.100000" y1="54.000000" x2="396.100000" y2="54.000000"  style="stroke:black; stroke-linecap:round; stroke-width:0.25;"/>
<line x1="396.100000" y1="46.000000" x2="400.100000" y2="46.000000"  style="stroke:black; stroke-linecap:round; stroke-width:0.25;"/>
<line x1="396.100000" y1="54.000000" x2="400.100000" y2="54.000000"  style="stroke:black; stroke-linecap:round; stroke-width:0.25;"/>
<line x1="400.100000" y1="46.000000" x2="410.100000" y2="46.000000"  style="stroke:black; stroke-linecap:round; stroke-width:0.25;"/>
<line x1="400.100000" y1="54.000000" x2="410.100000" y2="54.000000"  style="stroke:black; stroke-linecap:round; stroke-width:0.25;"/>
</svg>
